# xmcd
#
# Track frame offsets:
#	150
#	15990
#	33282
#	51895
#	73702
#	92442
#	112612
#	135800
#	155775
#	173437
#	192967
#	209220
#	229250
#	248852
#
# Disc length: 3562 seconds
#
# Revision: 21
# Processed by: cddbd v1.5.2PL0 Copyright (c) Steve Scherf et al.
# Submitted via: EasyCDDAExtractor 15.3.0.1
#
DISCID=ae0de80e
DTITLE=Mariah Carey - Greatest Hits - CD 1
DYEAR=2001
DGENRE=R&B/Pop
TTITLE0=Vision Of Love
TTITLE1=Love Takes Time
TTITLE2=Someday
TTITLE3=I Don't Wanna Cry
TTITLE4=Emotions
TTITLE5=Can't Let Go
TTITLE6=Make It Happen
TTITLE7=I'll Be There (Featuring Trey Lorenz)
TTITLE8=Dreamlover
TTITLE9=Hero
TTITLE10=Without You
TTITLE11=Anytime You Need A Friend
TTITLE12=Endless Love (Duet With Luther Vandross)
TTITLE13=Fantasy
EXTD=Sony - Columbia Records YEAR: 2001
EXTT0=
EXTT1=
EXTT2=
EXTT3=
EXTT4=
EXTT5=
EXTT6=
EXTT7=
EXTT8=
EXTT9=
EXTT10=
EXTT11=
EXTT12=
EXTT13=
PLAYORDER=
